<svg width="61" height="61" viewBox="0 0 61 61" fill="none" xmlns="http://www.w3.org/2000/svg">
<path fill-rule="evenodd" clip-rule="evenodd" d="M30.4918 53.0901C30.4918 51.7093 31.611 50.5901 32.9918 50.5901H52.9918C54.3725 50.5901 55.4918 51.7093 55.4918 53.0901C55.4918 54.4708 54.3725 55.5901 52.9918 55.5901H32.9918C31.611 55.5901 30.4918 54.4708 30.4918 53.0901Z" fill="#FFFFFF"/>
<path fill-rule="evenodd" clip-rule="evenodd" d="M52.4258 20.8399C56.4503 16.7996 56.2793 11.4939 53.2743 8.24466C51.8088 6.66033 49.7233 5.64833 47.361 5.59253C44.99 5.53653 42.5335 6.44326 40.2668 8.33971C40.2088 8.38821 40.153 8.43931 40.0998 8.49286L7.67791 41.0441C6.27784 42.4496 5.49176 44.3528 5.49176 46.3368V50.5706C5.49176 53.3243 7.72169 55.5901 10.5013 55.5901H14.6984C16.6927 55.5901 18.6049 54.7958 20.0122 53.3828L52.4258 20.8399ZM43.5095 15.0725C42.5333 14.0962 40.9503 14.0962 39.974 15.0725C38.9978 16.0488 38.9978 17.6317 39.974 18.608L42.474 21.108C43.4503 22.0843 45.0333 22.0843 46.0095 21.108C46.9858 20.1317 46.9858 18.5488 46.0095 17.5725L43.5095 15.0725Z" fill="#FFFFFF"/>
</svg>
