<svg width="60" height="60" viewBox="0 0 60 60" fill="none" xmlns="http://www.w3.org/2000/svg">
<path d="M40 45V52.5H20V45C20 42.6713 20.5422 40.3746 21.5836 38.2918C22.625 36.209 24.1371 34.3972 26 33L30 30L34 33C35.8629 34.3972 37.375 36.209 38.4164 38.2918C39.4578 40.3746 40 42.6713 40 45ZM40 15V7.5H20V15C20 17.3287 20.5422 19.6254 21.5836 21.7082C22.625 23.791 24.1371 25.6028 26 27L30 30L34 27C35.8629 25.6028 37.375 23.791 38.4164 21.7082C39.4578 19.6254 40 17.3287 40 15Z" fill="#2CA9BC"/>
<path d="M30 30L26 33C24.1371 34.3972 22.625 36.209 21.5836 38.2918C20.5422 40.3746 20 42.6713 20 45V52.5H40V45C40 42.6713 39.4578 40.3746 38.4164 38.2918C37.375 36.209 35.8629 34.3972 34 33L30 30ZM30 30L26 27C24.1371 25.6028 22.625 23.791 21.5836 21.7082C20.5422 19.6254 20 17.3287 20 15V7.5H40V15C40 17.3287 39.4578 19.6254 38.4164 21.7082C37.375 23.791 35.8629 25.6028 34 27L30 30ZM15 52.5H45M15 7.5H45" stroke="black" stroke-width="5" stroke-linecap="round" stroke-linejoin="round"/>
</svg>
