<svg width="23" height="12" viewBox="0 0 23 12" fill="none" xmlns="http://www.w3.org/2000/svg">
<path fill-rule="evenodd" clip-rule="evenodd" d="M0 0.782609C0 0.35039 0.355107 0 0.793146 0H9.25337C9.69139 0 10.0465 0.35039 10.0465 0.782609C10.0465 1.21483 9.69139 1.56522 9.25337 1.56522H0.793146C0.355107 1.56522 0 1.21483 0 0.782609ZM16.6561 1.56522C14.1738 1.56522 12.1616 3.55074 12.1616 6C12.1616 8.44925 14.1738 10.4348 16.6561 10.4348C19.1383 10.4348 21.1506 8.44925 21.1506 6C21.1506 3.55074 19.1383 1.56522 16.6561 1.56522ZM10.5753 6C10.5753 2.68629 13.2978 0 16.6561 0C20.0143 0 22.7368 2.68629 22.7368 6C22.7368 9.31367 20.0143 12 16.6561 12C13.2978 12 10.5753 9.31367 10.5753 6ZM16.6561 3.13043C17.0941 3.13043 17.4492 3.48082 17.4492 3.91304V5.54755L18.313 6.53092C18.5998 6.85753 18.564 7.35183 18.233 7.63492C17.902 7.91791 17.4011 7.88264 17.1142 7.55604L16.0567 6.35207C15.9318 6.20974 15.8629 6.02776 15.8629 5.83951V3.91304C15.8629 3.48082 16.218 3.13043 16.6561 3.13043ZM0 6C0 5.56779 0.355107 5.21739 0.793146 5.21739H7.13831C7.57635 5.21739 7.93146 5.56779 7.93146 6C7.93146 6.43221 7.57635 6.78261 7.13831 6.78261H0.793146C0.355107 6.78261 0 6.43221 0 6ZM0 11.2174C0 10.7852 0.355107 10.4348 0.793146 10.4348H9.25337C9.69139 10.4348 10.0465 10.7852 10.0465 11.2174C10.0465 11.6496 9.69139 12 9.25337 12H0.793146C0.355107 12 0 11.6496 0 11.2174Z" fill="black"/>
</svg>
