<svg width="21" height="12" viewBox="0 0 21 12" fill="none" xmlns="http://www.w3.org/2000/svg">
<path fill-rule="evenodd" clip-rule="evenodd" d="M0 0.782598C0 0.350385 0.354237 0 0.791202 0H11.3406C11.7775 0 12.1318 0.350385 12.1318 0.782598C12.1318 1.21481 11.7775 1.5652 11.3406 1.5652H0.791202C0.354237 1.5652 0 1.21481 0 0.782598ZM15.0328 0C15.3442 0 15.6266 0.180613 15.7543 0.461451L20.5015 10.8961C20.6809 11.2903 20.5032 11.7536 20.1048 11.9309C19.7062 12.1082 19.2378 11.9325 19.0586 11.5384L17.5422 8.20538H12.5235L11.0071 11.5384C10.8279 11.9325 10.3595 12.1082 9.96092 11.9309C9.56247 11.7536 9.38482 11.2903 9.56416 10.8961L14.3114 0.461451C14.4391 0.180613 14.7215 0 15.0328 0ZM13.2355 6.64018H16.8301L15.0328 2.68967L13.2355 6.64018ZM0 5.99992C0 5.56771 0.354237 5.21732 0.791202 5.21732H8.17576C8.61271 5.21732 8.96696 5.56771 8.96696 5.99992C8.96696 6.43212 8.61271 6.78251 8.17576 6.78251H0.791202C0.354237 6.78251 0 6.43212 0 5.99992ZM0 11.2172C0 10.785 0.354237 10.4346 0.791202 10.4346H6.06588C6.50285 10.4346 6.85709 10.785 6.85709 11.2172C6.85709 11.6494 6.50285 11.9998 6.06588 11.9998H0.791202C0.354237 11.9998 0 11.6494 0 11.2172Z" fill="black"/>
</svg>
