<svg width="16" height="18" viewBox="0 0 16 18" fill="none" xmlns="http://www.w3.org/2000/svg">
<path d="M5.07143 17H1C1 13.5636 3.83553 10.7778 7.33333 10.7778C7.48542 10.7778 7.63625 10.783 7.78571 10.7934M10.9524 4.55556C10.9524 6.51924 9.33204 8.11111 7.33333 8.11111C5.33459 8.11111 3.71429 6.51924 3.71429 4.55556C3.71429 2.59188 5.33459 1 7.33333 1C9.33204 1 10.9524 2.59188 10.9524 4.55556ZM8.77172 17L10.6039 16.64C10.7636 16.6086 10.8435 16.5929 10.918 16.5642C10.9841 16.5388 11.0469 16.5057 11.1052 16.4658C11.1708 16.4208 11.2284 16.3643 11.3436 16.251L15.1051 12.5556C15.6048 12.0646 15.6048 11.2687 15.1051 10.7778C14.6054 10.2868 13.7952 10.2868 13.2955 10.7778L9.53408 14.4732C9.4189 14.5865 9.36127 14.643 9.31549 14.7076C9.27486 14.7647 9.2413 14.8265 9.21533 14.8915C9.18611 14.9646 9.17018 15.0431 9.13815 15.2L8.77172 17Z" stroke="black" stroke-linecap="round" stroke-linejoin="round"/>
</svg>
